/* XPM */
static char * active_2_25_xpm[] = {
"25 25 136 2",
"  	c None",
". 	c #3B746E",
"+ 	c #3D766E",
"@ 	c #407970",
"# 	c #427B71",
"$ 	c #447D72",
"% 	c #467F73",
"& 	c #498174",
"* 	c #4B8375",
"= 	c #4D8676",
"- 	c #4F8877",
"; 	c #518A79",
"> 	c #548C7A",
", 	c #568E7B",
"' 	c #58917C",
") 	c #5A937D",
"! 	c #5D957E",
"~ 	c #5F977F",
"{ 	c #619980",
"] 	c #639C81",
"^ 	c #669E83",
"/ 	c #68A084",
"( 	c #6AA285",
"_ 	c #407870",
": 	c #6CA486",
"< 	c #488174",
"[ 	c #6EA687",
"} 	c #639B81",
"| 	c #6A9381",
"1 	c #806A7D",
"2 	c #8D517B",
"3 	c #807480",
"4 	c #6FA687",
"5 	c #71A988",
"6 	c #75787E",
"7 	c #89547B",
"8 	c #8E4C7A",
"9 	c #885D7D",
"0 	c #7A8482",
"a 	c #73AB89",
"b 	c #518A78",
"c 	c #5F967F",
"d 	c #74757D",
"e 	c #825F7B",
"f 	c #767C7F",
"g 	c #689F84",
"h 	c #75AD8A",
"i 	c #6B817D",
"j 	c #84577A",
"k 	c #6D887F",
"l 	c #77AF8B",
"m 	c #58907C",
"n 	c #78697B",
"o 	c #923D78",
"p 	c #659881",
"q 	c #7AB18D",
"r 	c #756F7B",
"s 	c #9D2876",
"t 	c #699180",
"u 	c #659E83",
"v 	c #7CB38E",
"w 	c #69847D",
"x 	c #A21E75",
"y 	c #747A7E",
"z 	c #7EB68F",
"A 	c #588A7A",
"B 	c #68777A",
"C 	c #5B917D",
"D 	c #60967F",
"E 	c #973377",
"F 	c #953978",
"G 	c #669D82",
"H 	c #80B890",
"I 	c #4D8576",
"J 	c #706678",
"K 	c #9F2175",
"L 	c #A71574",
"M 	c #845078",
"N 	c #74747C",
"O 	c #79757E",
"P 	c #83BA91",
"Q 	c #637A79",
"R 	c #A61674",
"S 	c #A31C74",
"T 	c #A81474",
"U 	c #A41B74",
"V 	c #6A887F",
"W 	c #933B78",
"X 	c #9F2776",
"Y 	c #699C83",
"Z 	c #85BC92",
"` 	c #775F78",
" .	c #9B2A76",
"..	c #72707B",
"+.	c #A02175",
"@.	c #89507A",
"#.	c #A61774",
"$.	c #85617C",
"%.	c #87BE93",
"&.	c #60887C",
"*.	c #5D937E",
"=.	c #8C4678",
"-.	c #A61874",
";.	c #719183",
">.	c #71A888",
",.	c #82BA91",
"'.	c #89C194",
").	c #7E657C",
"!.	c #973B79",
"~.	c #8BC395",
"{.	c #77797E",
"].	c #85697E",
"^.	c #8EC597",
"/.	c #5C957E",
"(.	c #659E82",
"_.	c #748380",
":.	c #A71674",
"<.	c #769384",
"[.	c #90C798",
"}.	c #659D82",
"|.	c #768581",
"1.	c #A81574",
"2.	c #9F2B77",
"3.	c #71A788",
"4.	c #92C999",
"5.	c #7A8181",
"6.	c #8F547C",
"7.	c #759C86",
"8.	c #79B18C",
"9.	c #94CB9A",
"0.	c #97CE9B",
"a.	c #96CE9B",
"b.	c #99D09C",
"c.	c #89C094",
"d.	c #9BD29D",
"e.	c #9CD29E",
". . . . . + @ # $ % & * = - ; > , ' ) ! ~ { ] ^ / ",
". . . . + @ # $ % & * = - ; > , ' ) ! ~ { ] ^ / ( ",
". . . + _ # $ % & * = - ; > , ' ) ! ~ { ] ^ / ( : ",
". . + _ # $ % < * = - ; > , ' ) ! ~ { ] ^ / ( : [ ",
". + _ # $ % < * = - ; > , ' ) ! ~ { } | 1 2 3 4 5 ",
"+ _ # $ % < * = - ; > , ' ) ! ~ { 6 7 8 9 0 4 5 a ",
"_ # $ % < * = - b > , ' ) ! c d e f g ( : [ 5 a h ",
"# $ % < * = - b > , ' ) ! i j k ^ / ( : [ 5 a h l ",
"$ % < * = - b > , m ) ! n o p ^ / ( : [ 5 a h l q ",
"% < * = - b > , m ) ! r s t u / ( : [ 5 a h l q v ",
"< * = - b > , m ) ! w x y u / ( : [ 5 a h l q v z ",
"* = - b > A B C ! D E F G / ( : [ 5 a h l q v z H ",
"I - b > J K L M ~ N L O / ( : [ 5 a h l q v z H P ",
"- b > Q R S T U V W X Y ( : [ 5 a h l q v z H P Z ",
"b > , `  ...+.T @.#.$.( : [ 5 a h l q v z H P Z %.",
"> , m &.*.~ =.T -.#.;.: [ >.a h l q v z H ,.Z %.'.",
", m ) ! ~ { ).T T !.: [ >.a h l q v z H ,.Z %.'.~.",
"m ) ! ~ { } {.T T ].[ >.a h l q v z H ,.Z %.'.~.^.",
") /.~ { } (._.L :.<.>.a h l q v z H ,.Z %.'.~.^.[.",
"/.~ { } }./ |.1.2.3.a h l q v z H ,.Z %.'.~.^.[.4.",
"~ { } }./ ( 5.6.7.a h l 8.v z H ,.Z %.'.~.^.[.4.9.",
"{ } }./ ( : [ >.a h l 8.v z H ,.Z %.'.~.^.[.4.9.0.",
"} }./ ( : [ >.a h l 8.v z H ,.Z %.'.~.^.[.4.9.a.b.",
"}./ ( : [ >.a h l 8.v z H ,.Z %.c.~.^.[.4.9.a.b.d.",
"/ ( : [ >.a h l 8.v z H ,.Z %.c.~.^.[.4.9.a.b.d.e."};
