/* XPM */
static char * active_25_xpm[] = {
"25 25 133 2",
"  	c None",
". 	c #3B746E",
"+ 	c #3D766E",
"@ 	c #407970",
"# 	c #427B71",
"$ 	c #447D72",
"% 	c #467F73",
"& 	c #498174",
"* 	c #4B8375",
"= 	c #4D8676",
"- 	c #4F8877",
"; 	c #518A79",
"> 	c #548C7A",
", 	c #568E7B",
"' 	c #58917C",
") 	c #5A937D",
"! 	c #5D957E",
"~ 	c #5F977F",
"{ 	c #619980",
"] 	c #639C81",
"^ 	c #669E83",
"/ 	c #68A084",
"( 	c #6AA285",
"_ 	c #407870",
": 	c #6CA486",
"< 	c #488174",
"[ 	c #669D82",
"} 	c #737E7E",
"| 	c #815776",
"1 	c #6E9983",
"2 	c #6EA687",
"3 	c #659881",
"4 	c #81637C",
"5 	c #9D2A76",
"6 	c #A41973",
"7 	c #875D7B",
"8 	c #71A988",
"9 	c #698F80",
"0 	c #973577",
"a 	c #9B3077",
"b 	c #84657D",
"c 	c #709482",
"d 	c #73AB89",
"e 	c #518A78",
"f 	c #717F7E",
"g 	c #993377",
"h 	c #7A797F",
"i 	c #75AD8A",
"j 	c #7B6C7C",
"k 	c #953B78",
"l 	c #6F9182",
"m 	c #77AF8B",
"n 	c #58907C",
"o 	c #619880",
"p 	c #87547A",
"q 	c #8D4C7A",
"r 	c #6A9B83",
"s 	c #7AB18D",
"t 	c #87537A",
"u 	c #83627C",
"v 	c #689F84",
"w 	c #7CB38E",
"x 	c #627277",
"y 	c #7A5577",
"z 	c #746078",
"A 	c #5E877B",
"B 	c #7C687C",
"C 	c #7A737E",
"D 	c #7EB68F",
"E 	c #5C7A77",
"F 	c #A11C74",
"G 	c #A81474",
"H 	c #A71474",
"I 	c #A21D75",
"J 	c #756B7B",
"K 	c #70827F",
"L 	c #81657C",
"M 	c #80B890",
"N 	c #4D8576",
"O 	c #5D7F79",
"P 	c #627D7A",
"Q 	c #69767A",
"R 	c #884777",
"S 	c #A61674",
"T 	c #A31C75",
"U 	c #668F7F",
"V 	c #679381",
"W 	c #89547B",
"X 	c #689F83",
"Y 	c #83BA91",
"Z 	c #7F5C7A",
"` 	c #79707D",
" .	c #87567B",
"..	c #6C9682",
"+.	c #85BC92",
"@.	c #649480",
"#.	c #A41B75",
"$.	c #963878",
"%.	c #81697D",
"&.	c #87BE93",
"*.	c #639B81",
"=.	c #9B2E77",
"-.	c #A41D75",
";.	c #6D9C84",
">.	c #71A888",
",.	c #82BA91",
"'.	c #89C194",
").	c #659E82",
"!.	c #9A3177",
"~.	c #8F4D7B",
"{.	c #8BC395",
"].	c #A51A75",
"^.	c #798582",
"/.	c #8EC597",
"(.	c #5C957E",
"_.	c #778381",
":.	c #9D3077",
"<.	c #6FA687",
"[.	c #90C798",
"}.	c #659D82",
"|.	c #895D7D",
"1.	c #866A7F",
"2.	c #92C999",
"3.	c #8B5B7D",
"4.	c #71A688",
"5.	c #79B18C",
"6.	c #94CB9A",
"7.	c #97CE9B",
"8.	c #96CE9B",
"9.	c #99D09C",
"0.	c #89C094",
"a.	c #9BD29D",
"b.	c #9CD29E",
". . . . . + @ # $ % & * = - ; > , ' ) ! ~ { ] ^ / ",
". . . . + @ # $ % & * = - ; > , ' ) ! ~ { ] ^ / ( ",
". . . + _ # $ % & * = - ; > , ' ) ! ~ { ] ^ / ( : ",
". . + _ # $ % < * = - ; > , ' ) ! ~ { ] [ } | 1 2 ",
". + _ # $ % < * = - ; > , ' ) ! ~ { 3 4 5 6 7 2 8 ",
"+ _ # $ % < * = - ; > , ' ) ! ~ { 9 0 a b c 2 8 d ",
"_ # $ % < * = - e > , ' ) ! ~ { f g h ( : 2 8 d i ",
"# $ % < * = - e > , ' ) ! ~ { j k l ( : 2 8 d i m ",
"$ % < * = - e > , n ) ! ~ o p q r ( : 2 8 d i m s ",
"% < * = - e > , n ) ! ~ { t u v ( : 2 8 d i m s w ",
"< * = - x y z A ) ! ~ { B C / ( : 2 8 d i m s w D ",
"* = - E F G H I J ~ { K L / ( : 2 8 d i m s w D M ",
"N - e O P Q R S T U V W X ( : 2 8 d i m s w D M Y ",
"- e > , n ) ! Z G `  ...( : 2 8 d i m s w D M Y +.",
"e > , n ) ! ~ @.#.$.%.( : 2 8 d i m s w D M Y +.&.",
"> , n ) ! ~ { *.=.-.;.: 2 >.d i m s w D M ,.+.&.'.",
", n ) ! ~ { *.).!.~.: 2 >.d i m s w D M ,.+.&.'.{.",
"n ) ! ~ { *.).r ].^.2 >.d i m s w D M ,.+.&.'.{./.",
") (.~ { *.)./ _.:.<.>.d i m s w D M ,.+.&.'.{./.[.",
"(.~ { *.}./ ( |.1.>.d i m s w D M ,.+.&.'.{./.[.2.",
"~ { *.}./ ( : 3.4.d i m 5.w D M ,.+.&.'.{./.[.2.6.",
"{ *.}./ ( : 2 >.d i m 5.w D M ,.+.&.'.{./.[.2.6.7.",
"*.}./ ( : 2 >.d i m 5.w D M ,.+.&.'.{./.[.2.6.8.9.",
"}./ ( : 2 >.d i m 5.w D M ,.+.&.0.{./.[.2.6.8.9.a.",
"/ ( : 2 >.d i m 5.w D M ,.+.&.0.{./.[.2.6.8.9.a.b."};
