/* XPM */
static char * addDown_25_xpm[] = {
"25 25 43 1",
" 	c None",
".	c #000000",
"+	c #010101",
"@	c #040404",
"#	c #060606",
"$	c #070707",
"%	c #080808",
"&	c #090909",
"*	c #222222",
"=	c #E12222",
"-	c #E33333",
";	c #E64545",
">	c #E64646",
",	c #E33232",
"'	c #E01A1A",
")	c #E12424",
"!	c #E22525",
"~	c #E22C2C",
"{	c #E53F3F",
"]	c #E01B1B",
"^	c #E54141",
"/	c #E01C1C",
"(	c #E43939",
"_	c #E43838",
":	c #E54242",
"<	c #E43636",
"[	c #E53E3E",
"}	c #E11F1F",
"|	c #E64A4A",
"1	c #E53C3C",
"2	c #E43737",
"3	c #E22B2B",
"4	c #E74B4B",
"5	c #E12323",
"6	c #E64343",
"7	c #E64444",
"8	c #E54343",
"9	c #E22A2A",
"0	c #E22828",
"a	c #E33131",
"b	c #E43B3B",
"c	c #E12020",
"d	c #E64747",
"                         ",
"    ..                   ",
"    ..                   ",
"    ..                   ",
"  ....+...               ",
".........@               ",
" .@#..$%&*               ",
"    ..                   ",
"    ..     =-        ;>  ",
"    ..    ,'')       !~  ",
"    +.   {'''']^     '/  ",
"        ('''''''~   _''  ",
"       :'''''''''!  <''  ",
"       [''''''''''}|1''^ ",
"        2'''''''''''3''_ ",
"         4)''''''''''''5 ",
"           _'''''''''''' ",
"            :''''''''''' ",
"             6'''''''''' ",
"              7''''''''' ",
"              8/''''''''7",
"             9'''''''''' ",
"           2''''''0ab8   ",
"          ^'''c<^        ",
"           {d            "};
