/* XPM */
static char * addUp_15_xpm[] = {
"25 15 45 1",
" 	c None",
".	c #E43737",
"+	c #E33333",
"@	c #E43535",
"#	c #E33232",
"$	c #E43636",
"%	c #E32E2E",
"&	c #E22B2B",
"*	c #E32D2D",
"=	c #E22929",
"-	c #E12323",
";	c #E01A1A",
">	c #E64747",
",	c #E33434",
"'	c #E12525",
")	c #E11E1E",
"!	c #E22727",
"~	c #E43B3B",
"{	c #E54242",
"]	c #E01E1E",
"^	c #E33131",
"/	c #E01B1B",
"(	c #E12424",
"_	c #E12020",
":	c #E64949",
"<	c #E01D1D",
"[	c #E01C1C",
"}	c #E54040",
"|	c #E43838",
"1	c #E54343",
"2	c #E22A2A",
"3	c #E64545",
"4	c #000000",
"5	c #020202",
"6	c #151515",
"7	c #E54141",
"8	c #E12222",
"9	c #E64444",
"0	c #050505",
"a	c #E33030",
"b	c #030303",
"c	c #060606",
"d	c #080808",
"e	c #010101",
"f	c #0A0A0A",
"                 .+@#$   ",
"         %&*=-;;;;;;;;>  ",
"         ,&')!-;;;;;;;~  ",
"             {];;;;;;;&  ",
"            ^;;;;;;;;;/  ",
"           (;;;;;;;;;;;. ",
"          _;;;;;;;_~:<;[ ",
"        }/;;;;;;;%    /;{",
"        |-;;;;;/1      23",
"    456   78;;[9         ",
"    440     #a           ",
" bcde45fdd0              ",
" 44444ee44e              ",
"    44b                  ",
"     44                  "};
