/* XPM */
static char * addUp_25_xpm[] = {
"25 25 41 1",
" 	c None",
".	c #E64343",
"+	c #E43535",
"@	c #E22828",
"#	c #E01B1B",
"$	c #E01A1A",
"%	c #E43838",
"&	c #E32F2F",
"*	c #E22727",
"=	c #E64848",
"-	c #E64545",
";	c #E12020",
">	c #E53D3D",
",	c #E22C2C",
"'	c #E12121",
")	c #E33131",
"!	c #E22929",
"~	c #E43939",
"{	c #E32E2E",
"]	c #E12222",
"^	c #E43B3B",
"/	c #E53F3F",
"(	c #E85555",
"_	c #E33333",
":	c #E12424",
"<	c #E01E1E",
"[	c #E54242",
"}	c #E33030",
"|	c #E54141",
"1	c #E33232",
"2	c #E53C3C",
"3	c #E74E4E",
"4	c #040404",
"5	c #252525",
"6	c #000000",
"7	c #070707",
"8	c #050505",
"9	c #E43737",
"0	c #010101",
"a	c #030303",
"b	c #060606",
"                         ",
"              .+@#$$$$   ",
"         %&*#$$$$$$$$$=  ",
"        -;$$$$$$$$$$$$>  ",
"          >,')!$$$$$$$~  ",
"              ;$$$$$$${  ",
"             !$$$$$$$$]  ",
"            )$$$$$$$$$$  ",
"           ^$$$$$$$$$$$/ ",
"          (#$$$$$$$$$$$_ ",
"          :$$$$$$$$)/$$< ",
"         &$$$$$$$$&  !$$ ",
"        [$$$$$$$$}    $$|",
"        @$$$$$$$!     1$2",
"         !$$$$$#       %3",
"     45   ~$$$$>         ",
"    667    +$$@          ",
"    668     9!           ",
"    668                  ",
" 0ab0666666              ",
" 6666666660              ",
"    66a                  ",
"    66a                  ",
"     66                  ",
"     66                  "};
