/* XPM */
static char * helix_64_xpm[] = {
"64 64 685 2",
"  	c None",
". 	c #6B6C92",
"+ 	c #6B6D93",
"@ 	c #6C6E94",
"# 	c #6C6F96",
"$ 	c #6D7097",
"% 	c #6E7199",
"& 	c #6F729A",
"* 	c #6F739B",
"= 	c #70749D",
"- 	c #71759E",
"; 	c #7276A0",
"> 	c #7377A1",
", 	c #7378A2",
"' 	c #7479A4",
") 	c #757AA5",
"! 	c #767CA7",
"~ 	c #767DA8",
"{ 	c #777EA9",
"] 	c #787FAB",
"^ 	c #7980AC",
"/ 	c #7981AD",
"( 	c #7A82AF",
"_ 	c #7B83B0",
": 	c #7C84B2",
"< 	c #7D85B3",
"[ 	c #7D86B4",
"} 	c #7E87B6",
"| 	c #7F88B7",
"1 	c #8089B9",
"2 	c #808ABA",
"3 	c #818BBB",
"4 	c #828CBD",
"5 	c #838DBE",
"6 	c #838EC0",
"7 	c #848FC1",
"8 	c #8590C2",
"9 	c #8691C4",
"0 	c #8792C5",
"a 	c #8793C6",
"b 	c #8895C8",
"c 	c #8996C9",
"d 	c #8A97CB",
"e 	c #8A98CC",
"f 	c #8B99CD",
"g 	c #8C9ACF",
"h 	c #8D9BD0",
"i 	c #8D9CD2",
"j 	c #8E9DD3",
"k 	c #8F9ED4",
"l 	c #909FD6",
"m 	c #91A0D7",
"n 	c #91A1D9",
"o 	c #92A2DA",
"p 	c #93A3DB",
"q 	c #94A4DD",
"r 	c #94A5DE",
"s 	c #95A6DF",
"t 	c #96A7E1",
"u 	c #97A8E2",
"v 	c #72769F",
"w 	c #7277A1",
"x 	c #767BA6",
"y 	c #767CA8",
"z 	c #7C85B3",
"A 	c #8089B8",
"B 	c #838EBF",
"C 	c #8692C5",
"D 	c #8894C8",
"E 	c #8995C9",
"F 	c #8D9CD1",
"G 	c #90A0D7",
"H 	c #91A1D8",
"I 	c #97A9E4",
"J 	c #6B6E94",
"K 	c #6E7198",
"L 	c #757BA6",
"M 	c #777DA9",
"N 	c #787EAA",
"O 	c #7C84B1",
"P 	c #7F89B8",
"Q 	c #8691C3",
"R 	c #8996CA",
"S 	c #8A97CC",
"T 	c #93A4DC",
"U 	c #97A9E3",
"V 	c #98AAE5",
"W 	c #6E729A",
"X 	c #70749C",
"Y 	c #7479A3",
"Z 	c #787FAC",
"` 	c #7980AD",
" .	c #7E87B5",
"..	c #828CBC",
"+.	c #828DBE",
"@.	c #8B98CD",
"#.	c #8C99CE",
"$.	c #8D9AD0",
"%.	c #909FD5",
"&.	c #96A7E0",
"*.	c #99ABE6",
"=.	c #6C6F95",
"-.	c #71769F",
";.	c #7A81AE",
">.	c #7B82B0",
",.	c #7B83B1",
"'.	c #808AB9",
").	c #848FC0",
"!.	c #8894C7",
"~.	c #A8ADD3",
"{.	c #99A2CF",
"].	c #F7E4E7",
"^.	c #E8DAE4",
"/.	c #8C9AD0",
"(.	c #8D9BD1",
"_.	c #8E9CD2",
":.	c #92A2D9",
"<.	c #96A8E2",
"[.	c #9AACE7",
"}.	c #6E7299",
"|.	c #7277A0",
"1.	c #7D85B4",
"2.	c #8591C3",
"3.	c #8692C4",
"4.	c #FED8D8",
"5.	c #FEB9B9",
"6.	c #FD8181",
"7.	c #FD6464",
"8.	c #FD6262",
"9.	c #FD5656",
"0.	c #FD5E5E",
"a.	c #FE7272",
"b.	c #FE9999",
"c.	c #FFE5E5",
"d.	c #8F9DD4",
"e.	c #8F9ED5",
"f.	c #94A5DD",
"g.	c #98AAE4",
"h.	c #99ACE7",
"i.	c #9AADE9",
"j.	c #6B6D94",
"k.	c #6C6E95",
"l.	c #71759D",
"m.	c #747AA4",
"n.	c #7E86B5",
"o.	c #828DBD",
"p.	c #FECECE",
"q.	c #FE7C7C",
"r.	c #FD4949",
"s.	c #FC1D1D",
"t.	c #FC0E0E",
"u.	c #FC0505",
"v.	c #FC0303",
"w.	c #FD2424",
"x.	c #FD2F2F",
"y.	c #FE9191",
"z.	c #91A0D8",
"A.	c #92A3DB",
"B.	c #9AADE8",
"C.	c #9BAEEA",
"D.	c #6D6F96",
"E.	c #6D7098",
"F.	c #777DA8",
"G.	c #777EAA",
"H.	c #7B82AF",
"I.	c #7F88B8",
"J.	c #818CBC",
"K.	c #8590C1",
"L.	c #D6CDDE",
"M.	c #FEA2A2",
"N.	c #FD4848",
"O.	c #FC0D0D",
"P.	c #FC0000",
"Q.	c #FC0101",
"R.	c #F12C23",
"S.	c #EE9285",
"T.	c #EBECDB",
"U.	c #95A7E0",
"V.	c #96A8E1",
"W.	c #9CAFEB",
"X.	c #70759D",
"Y.	c #7378A1",
"Z.	c #818ABA",
"`.	c #818BBC",
" +	c #8490C1",
".+	c #C6C2D9",
"++	c #FE9A9A",
"@+	c #FC1E1E",
"#+	c #FB0100",
"$+	c #D82405",
"%+	c #A35A0E",
"&+	c #6DB73D",
"*+	c #90E78B",
"=+	c #CDF5CA",
"-+	c #98ABE5",
";+	c #9CB0EC",
">+	c #70739C",
",+	c #7379A3",
"'+	c #757BA5",
")+	c #7D86B5",
"!+	c #FD3434",
"~+	c #FC0404",
"{+	c #FC1A1A",
"]+	c #FC1414",
"^+	c #FC2626",
"/+	c #FC0F0F",
"(+	c #FC0A0A",
"_+	c #FA0503",
":+	c #9B610F",
"<+	c #43B81B",
"[+	c #2ECE20",
"}+	c #2CD423",
"|+	c #6EE168",
"1+	c #DCF8DB",
"2+	c #95A6E0",
"3+	c #9DB1EE",
"4+	c #848EC0",
"5+	c #FED4D4",
"6+	c #FD4D4D",
"7+	c #FC1010",
"8+	c #FD3B3B",
"9+	c #FD7070",
"0+	c #FE9595",
"a+	c #FFB8B8",
"b+	c #FEAEAE",
"c+	c #FFB2B2",
"d+	c #FD7373",
"e+	c #E84332",
"f+	c #868F2B",
"g+	c #28D31F",
"h+	c #38D630",
"i+	c #9FEB9B",
"j+	c #9BAEE9",
"k+	c #9BAFEB",
"l+	c #9EB1EF",
"m+	c #FE8383",
"n+	c #FC2222",
"o+	c #FC1313",
"p+	c #FD6D6D",
"q+	c #FFC8C8",
"r+	c #FFE8E8",
"s+	c #8F9DD2",
"t+	c #AFB5DD",
"u+	c #F7D9D3",
"v+	c #90D276",
"w+	c #32D227",
"x+	c #60DF5A",
"y+	c #E4FAE3",
"z+	c #98A9E4",
"A+	c #9DB1ED",
"B+	c #FEC4C4",
"C+	c #FD4444",
"D+	c #FC0606",
"E+	c #FD7A7A",
"F+	c #8E9CD0",
"G+	c #C6F3C3",
"H+	c #52DB4B",
"I+	c #50DB48",
"J+	c #CFF5CD",
"K+	c #9AACE8",
"L+	c #FD8282",
"M+	c #FC1B1B",
"N+	c #FFD2D2",
"O+	c #DAEAE7",
"P+	c #64DF5D",
"Q+	c #2AD321",
"R+	c #49DA41",
"S+	c #DBF7DA",
"T+	c #FFE2E2",
"U+	c #FD6A6A",
"V+	c #FE8E8E",
"W+	c #E9DBE5",
"X+	c #DCF7DA",
"Y+	c #63DF5C",
"Z+	c #51DB4A",
"`+	c #C9F4C7",
" @	c #9CAFEC",
".@	c #9DB0ED",
"+@	c #FD4747",
"@@	c #FEB5B5",
"#@	c #8E9DD1",
"$@	c #DCF8DA",
"%@	c #5ADD53",
"&@	c #29D320",
"*@	c #50DB49",
"=@	c #9BADE7",
"-@	c #FFE4E4",
";@	c #FD5B5B",
">@	c #FEACAC",
",@	c #BDF1BA",
"'@	c #39D631",
")@	c #74E36E",
"!@	c #DFF9DE",
"~@	c #FD6B6B",
"{@	c #FC0909",
"]@	c #FC4C4C",
"^@	c #FFD1D1",
"/@	c #70E26A",
"(@	c #34D62C",
"_@	c #7DE577",
":@	c #9CAFEA",
"<@	c #8895C9",
"[@	c #FEA1A1",
"}@	c #FC1616",
"|@	c #E0F9DF",
"1@	c #A0EC9D",
"2@	c #3BD733",
"3@	c #3CD735",
"4@	c #B8F1B6",
"5@	c #9CB0ED",
"6@	c #FD4C4C",
"7@	c #FC2E2E",
"8@	c #FEA7A7",
"9@	c #92A1D9",
"0@	c #ADBDE3",
"a@	c #D4F7D3",
"b@	c #85E681",
"c@	c #3CD734",
"d@	c #2BD422",
"e@	c #30D527",
"f@	c #6BE165",
"g@	c #9DB0EB",
"h@	c #8B98CC",
"i@	c #8B99CE",
"j@	c #FE8F8F",
"k@	c #FC0707",
"l@	c #FC4B4A",
"m@	c #F6CFC9",
"n@	c #E9F9E7",
"o@	c #E5F6E8",
"p@	c #CDF5CB",
"q@	c #94E98F",
"r@	c #5EDE57",
"s@	c #35D62D",
"t@	c #3DD735",
"u@	c #8793C5",
"v@	c #8794C7",
"w@	c #EED2C4",
"x@	c #F0665A",
"y@	c #F2140C",
"z@	c #FB0A09",
"A@	c #C15724",
"B@	c #8EC465",
"C@	c #56DC4E",
"D@	c #2FD426",
"E@	c #47D93F",
"F@	c #8FE88A",
"G@	c #9DB1EC",
"H@	c #E8FAE7",
"I@	c #C4F3C2",
"J@	c #91E88C",
"K@	c #62B532",
"L@	c #B8480F",
"M@	c #F90300",
"N@	c #EB1406",
"O@	c #807C12",
"P@	c #2DD020",
"Q@	c #3ED736",
"R@	c #A2EC9F",
"S@	c #E9FBE8",
"T@	c #D8E7E5",
"U@	c #85E580",
"V@	c #32D529",
"W@	c #30CF22",
"X@	c #50AB19",
"Y@	c #B9430A",
"Z@	c #F60601",
"`@	c #FA0200",
" #	c #D82406",
".#	c #728A14",
"+#	c #31CA1E",
"@#	c #6DE167",
"##	c #B1EFAE",
"$#	c #BDCFEC",
"%#	c #9EB2ED",
"&#	c #7FE57A",
"*#	c #36D62E",
"=#	c #29D21F",
"-#	c #738814",
";#	c #E31904",
">#	c #BC4009",
",#	c #43B81C",
"'#	c #59DD53",
")#	c #8CE887",
"!#	c #DEF8DC",
"~#	c #D7F7D6",
"{#	c #68E062",
"]#	c #2ED425",
"^#	c #3DC523",
"/#	c #7D7F13",
"(#	c #E41C07",
"_#	c #E61704",
":#	c #9F8132",
"<#	c #76DA67",
"[#	c #92E98D",
"}#	c #D3F6D2",
"|#	c #7BE476",
"1#	c #39D731",
"2#	c #38D730",
"3#	c #5DDE56",
"4#	c #78E372",
"5#	c #A7CB81",
"6#	c #E35843",
"7#	c #FB0202",
"8#	c #F02C21",
"9#	c #E9C7B5",
"0#	c #BFF2BD",
"a#	c #41D839",
"b#	c #2BD322",
"c#	c #62DF5B",
"d#	c #D5F6D4",
"e#	c #95A6DE",
"f#	c #BBC7E5",
"g#	c #FCBAB7",
"h#	c #FC3232",
"i#	c #7EE478",
"j#	c #31D528",
"k#	c #5ADE53",
"l#	c #C7F4C4",
"m#	c #94A5DC",
"n#	c #FD7D7D",
"o#	c #FD5454",
"p#	c #FFD9D9",
"q#	c #D9F7D7",
"r#	c #6DE166",
"s#	c #B3F0AF",
"t#	c #FEBABA",
"u#	c #FC2C2C",
"v#	c #FC0202",
"w#	c #FC1111",
"x#	c #FEABAB",
"y#	c #DBF8DA",
"z#	c #5CDD55",
"A#	c #E0F8DE",
"B#	c #F9E5E9",
"C#	c #FD7777",
"D#	c #FC0808",
"E#	c #45D93D",
"F#	c #6EE269",
"G#	c #FEA3A3",
"H#	c #FD5D5D",
"I#	c #ABBAEF",
"J#	c #CBF4C8",
"K#	c #49D941",
"L#	c #2BD423",
"M#	c #FEC7C7",
"N#	c #FC1818",
"O#	c #FD4F4F",
"P#	c #FFDDDD",
"Q#	c #CEF5CC",
"R#	c #44D83C",
"S#	c #B6F0B3",
"T#	c #FD3636",
"U#	c #FFE3E3",
"V#	c #EAF8E5",
"W#	c #72DF69",
"X#	c #2FD325",
"Y#	c #78E472",
"Z#	c #B6C0EC",
"`#	c #FD5F5F",
" $	c #DFD8EC",
".$	c #FEC8C8",
"+$	c #FBB9B6",
"@$	c #A99B54",
"#$	c #37C820",
"$$	c #86D873",
"%$	c #E7CBB8",
"&$	c #FEB8B7",
"*$	c #FEC6C6",
"=$	c #FD7676",
"-$	c #FD3F3F",
";$	c #FD8383",
">$	c #ACBAEF",
",$	c #9FAAD9",
"'$	c #FEC5C5",
")$	c #FD6E6E",
"!$	c #FD3535",
"~$	c #FC1918",
"{$	c #DC3418",
"]$	c #728B16",
"^$	c #33C81D",
"/$	c #46C72C",
"($	c #9A6C19",
"_$	c #E44B36",
":$	c #9FB2EF",
"<$	c #FD3D3D",
"[$	c #C93307",
"}$	c #5AA117",
"|$	c #42B91C",
"1$	c #AB500C",
"2$	c #F90401",
"3$	c #FC0100",
"4$	c #B9C2EF",
"5$	c #FFE1E1",
"6$	c #FE8888",
"7$	c #FC2727",
"8$	c #EC1002",
"9$	c #A9530C",
"0$	c #4EAD1A",
"a$	c #2BD01E",
"b$	c #2ECD1E",
"c$	c #679516",
"d$	c #CE2E07",
"e$	c #F70501",
"f$	c #FD5A5A",
"g$	c #DAD2E4",
"h$	c #FE9C9C",
"i$	c #FC1212",
"j$	c #FA0C0C",
"k$	c #A27124",
"l$	c #3BC824",
"m$	c #2DCE1E",
"n$	c #7E7D13",
"o$	c #E51704",
"p$	c #FC0B0B",
"q$	c #FC1919",
"r$	c #FD3939",
"s$	c #FD7171",
"t$	c #FECCCC",
"u$	c #FEB7B7",
"v$	c #FD4B4B",
"w$	c #FE9090",
"x$	c #FEADAC",
"y$	c #E4AC96",
"z$	c #89CB69",
"A$	c #33D52B",
"B$	c #4AB31B",
"C$	c #B46F31",
"D$	c #F85954",
"E$	c #FEA4A4",
"F$	c #FFDCDC",
"G$	c #ECDFEB",
"H$	c #FE8181",
"I$	c #FD2D2D",
"J$	c #FE7D7D",
"K$	c #FED5D5",
"L$	c #98AAE3",
"M$	c #D8F5D4",
"N$	c #64DF5E",
"O$	c #7CD468",
"P$	c #EDE0D1",
"Q$	c #FECFCF",
"R$	c #FD4040",
"S$	c #DDD5E8",
"T$	c #AEEEAB",
"U$	c #E2F9E1",
"V$	c #FFCCCC",
"W$	c #DFF9DD",
"X$	c #64E05E",
"Y$	c #49DA42",
"Z$	c #D1F6CF",
"`$	c #FEBCBC",
" %	c #FC2D2D",
".%	c #FD3131",
"+%	c #76E371",
"@%	c #2AD422",
"#%	c #BBF1B7",
"$%	c #FED7D7",
"%%	c #FC4444",
"&%	c #FED2D2",
"*%	c #E7FAE6",
"=%	c #84E67F",
"-%	c #B4F0B1",
";%	c #93A3DC",
">%	c #FD8686",
",%	c #FC1717",
"'%	c #FFD8D8",
")%	c #CCF5C9",
"!%	c #48D940",
"~%	c #B7F0B4",
"{%	c #FFD4D4",
"]%	c #FD4141",
"^%	c #FE8585",
"/%	c #E7FAE7",
"(%	c #BCF1B9",
"_%	c #6FE169",
":%	c #D7F7D5",
"<%	c #A4B1E3",
"[%	c #FA908D",
"}%	c #FC2020",
"|%	c #FB0403",
"1%	c #FC3333",
"2%	c #EDA899",
"3%	c #C7E7B8",
"4%	c #A1EC9D",
"5%	c #41D83A",
"6%	c #4BDA43",
"7%	c #9EEC9A",
"8%	c #CCE6BC",
"9%	c #B08847",
"0%	c #E1210A",
"a%	c #FA0402",
"b%	c #E5422F",
"c%	c #6EAF36",
"d%	c #38D52F",
"e%	c #2DD424",
"f%	c #81E67B",
"g%	c #E3FAE2",
"h%	c #C7F3C5",
"i%	c #8CE787",
"j%	c #67E061",
"k%	c #44D93C",
"l%	c #4FBD29",
"m%	c #8A7211",
"n%	c #E51703",
"o%	c #E91404",
"p%	c #916B10",
"q%	c #37C41D",
"r%	c #DBF7D9",
"s%	c #98EA93",
"t%	c #58DD51",
"u%	c #30D528",
"v%	c #3CBF1C",
"w%	c #A8540C",
"x%	c #FA0201",
"y%	c #DC2004",
"z%	c #56A518",
"A%	c #40D838",
"B%	c #DEF8DD",
"C%	c #E5FAE3",
"D%	c #88E683",
"E%	c #37D62F",
"F%	c #629917",
"G%	c #CD2F07",
"H%	c #F80401",
"I%	c #E81403",
"J%	c #80851B",
"K%	c #35D52B",
"L%	c #62DF5C",
"M%	c #ABEEA8",
"N%	c #DDF8DB",
"O%	c #96EA91",
"P%	c #28D320",
"Q%	c #30D427",
"R%	c #40C828",
"S%	c #9E5F0F",
"T%	c #F70601",
"U%	c #F50702",
"V%	c #B37F41",
"W%	c #B1E4A3",
"X%	c #C7F4C5",
"Y%	c #E6FAE4",
"Z%	c #E3F9E2",
"`%	c #72E26C",
" &	c #5EDE58",
".&	c #76E370",
"+&	c #90E88B",
"@&	c #87E17D",
"#&	c #D46A47",
"$&	c #F50B05",
"%&	c #FB0C0B",
"&&	c #FA6A67",
"*&	c #A2B4E3",
"=&	c #81E57C",
"-&	c #A1EB9D",
";&	c #D8F8D7",
">&	c #A8BBED",
",&	c #9EB2EE",
"'&	c #F58C84",
")&	c #BEF1BC",
"!&	c #6AE064",
"~&	c #66E060",
"{&	c #B3EFB0",
"]&	c #DCECEA",
"^&	c #FEA5A5",
"/&	c #FC1C1C",
"(&	c #FD5252",
"_&	c #95A5DE",
":&	c #D5F6D3",
"<&	c #CBF4C9",
"[&	c #FD9595",
"}&	c #C5C9EE",
"|&	c #FC4848",
"1&	c #FE8A8A",
"2&	c #FEC1C1",
"3&	c #FC4242",
"4&	c #FD6161",
"5&	c #FFDEDE",
"6&	c #FD5757",
"7&	c #FED0D0",
"8&	c #FE9F9F",
"9&	c #FD4343",
"0&	c #FE9696",
"a&	c #FEB2B2",
"b&	c #FECDCD",
". . . . . . + @ # $ % & * = - ; > , ' ) ! ~ { ] ^ / ( _ : < [ } | 1 2 3 4 5 6 7 8 9 0 a b c d e f g h i j k l m n o p q r s t u ",
". . . . . + @ # $ % & * = - v w , ' ) x y { ] ^ / ( _ : z [ } | A 2 3 4 5 B 7 8 9 C a D E d e f g h F j k l G H o p q r s t u I ",
". . . . + J # $ K & * = - v w , ' ) L y M N ^ / ( _ O z [ } | P 2 3 4 5 B 7 8 Q C a D E R S f g h F j k l G H o p T r s t u U V ",
". . . + J # $ K W * X - v w , Y ) L y M N Z ` ( _ O z [  .| P 2 3 ..+.B 7 8 Q C a D E R S @.#.$.F j k %.G H o p T r s &.u U V *.",
". . + J =.$ K W * X - -.w , Y ) L ! M N Z ` ;.>.,.z [  .| P '.3 ..+.B ).8 Q C a !.~.{.].^.^./.(._.k %.G H :.p T r s &.<.U V *.[.",
". . J =.$ K }.* X - -.|., Y ) L ! M N ] ` ;.>.,.: 1. .| P '.3 ..+.B ).8 2.3.4.5.6.7.8.9.0.a.b.c.d.e.G H :.p T f.s &.<.U g.*.h.i.",
". j.k.$ K }.* X l.-.|., Y m.L ! M N ] ` ;.>.,.: 1.n.} P '.3 ..o.B ).8 2.p.q.r.s.t.u.v.v.u.u.w.x.y.l z.:.A.T f.s &.<.U g.*.h.B.C.",
"j.k.D.E.}.* X l.-.|., Y m.L ! F.G.] ` ;.H.,.: 1.n.} I.1 3 J.o.B ).K.L.M.N.O.P.Q.P.P.P.P.P.P.P.u.R.S.T.o T f.s U.V.U g.*.h.B.C.W.",
"k.D.E.% & X X.-.|.Y.Y m.L ! F.G.] ` ;.( ,.: < n.} I.1 Z.`.o.B ). +.+++@+u.P.P.P.P.P.P.P.P.P.#+$+%+&+*+=+q s U.V.U g.-+h.B.C.W.;+",
"D.E.% & >+= -.|.Y.,+m.'+! F.G.] ^ ;.( ,.: < )+} I.1 Z.`.4 5 ). +2.++!+Q.P.P.P.P.~+{+]+^+/+(+_+:+<+[+}+|+1+2+V.U g.-+h.B.C.W.;+3+",
"$ % & >+= - ; Y.,+m.'+! ~ G.] ^ ;.( _ : < )+} | 1 Z.`.4 5 4+7 2.5+6+P.P.P.P.7+8+9+0+a+b+c+d+e+f+g+g+g+h+i+t u g.-+h.B.j+k+;+3+l+",
"% & >+= - ; > , m.'+! ~ { ] ^ ;.( _ : < )+} | 1 2 3 4 5 4+7 8 9 m+n+P.P.Q.o+p+q+r+s+j k l t+u+v+w+g+g+}+x+y+z+V h.B.j+k+;+A+l+l+",
"& * = - ; > , ' ) ! ~ { ] ^ / ( _ : < [ } | 1 2 3 4 5 6 7 8 9 B+C+P.P.P.D+E+5+F+i j k l m n o G+H+g+g+g+I+J+V *.K+j+k+;+A+l+l+l+",
"* = - v w , ' ) x y { ] ^ / ( _ : z [ } | A 2 3 4 5 B 7 8 9 C L+M+P.P.v.!+N+F+F j k l G H o p O+P+Q+g+g+R+S+*.K+i.C.;+A+l+l+l+l+",
"= - v w , ' ) L y M N ^ / ( _ O z [ } | P 2 3 4 5 B 7 8 Q C T+U+Q.P.P.u.V+W+F j k l G H o p T X+Y+g+g+g+Z+`+K+i.C. @.@l+l+l+l+l+",
"- v w , Y ) L y M N Z ` ( _ O z [  .| P 2 3 ..+.B 7 8 Q C a D +@~+P.P.^+@@#@j k %.G H o p T r $@%@g+g+&@*@=@i.C. @.@3+l+l+l+l+l+",
"-.w , Y ) L ! M N Z ` ;.>.,.z [  .| P '.3 ..+.B ).8 Q C a !.-@;@Q.P.P.@+>@_.k %.G H :.p T r s ,@'@g+g+g+)@!@C.W..@3+l+l+l+l+l+l+",
"|., Y ) L ! M N ] ` ;.>.,.: 1. .| P '.3 ..+.B ).8 2.3.a !.E R ~@u.P.P.{@]@^@e.G H :.p T f.s &./@(@g+g+(@_@:@W..@3+l+l+l+l+l+l+l+",
", Y m.L ! M N ] ` ;.>.,.: 1.n.} P '.3 ..o.B ).8 2.3.a !.<@R d [@/+P.P.P.}@V+l z.:.A.T f.s |@1@2@g+g+g+3@4@W.5@3+l+l+l+l+l+l+l+l+",
"Y m.L ! F.G.] ` ;.H.,.: 1.n.} I.1 3 J.o.B ).K.2.3.a !.b R d @.-@6@u.P.P.v.7@8@9@o T f.0@a@b@c@d@g+g+e@f@g@5@3+l+l+l+l+l+l+l+l+l+",
"m.L ! F.G.] ` ;.( ,.: < n.} I.1 Z.`.o.B ). +2.3.a !.b R d h@i@g j@k@P.P.P.P.l@m@n@o@p@q@r@s@g+g+g+g+t@`+;+3+l+l+l+l+l+l+l+l+l+l+",
"'+! F.G.] ^ ;.( ,.: < )+} I.1 Z.`.4 5 ). +2.3.u@v@b R d h@i@g (.w@x@y@P.P.P.z@A@B@r@C@D@g+g+g+g+g+E@F@G@3+l+l+l+l+l+l+l+l+l+l+l+",
"! ~ G.] ^ ;.( _ : < )+} | 1 Z.`.4 5 4+7 2.3.u@v@b c d h@i@g H@I@J@K@L@M@P.P.P.N@O@P@&@g+g+g+g+}+Q@R@S@3+l+l+l+l+l+l+l+l+l+l+l+l+",
"~ { ] ^ ;.( _ : < )+} | 1 2 3 4 5 4+7 8 9 u@v@b c d e i@g T@U@I+V@W@X@Y@Z@P.P.`@ #.#+#g+g+g+V@@###$#%#l+l+l+l+l+l+l+l+l+l+l+l+l+",
"{ ] ^ / ( _ : < [ } | 1 2 3 4 5 6 7 8 9 0 a b c d e f g `+&#*#g+g+g+=#-#;##+P.P.P.>#,#Q+(@'#)#!#G@A+l+l+l+l+l+l+l+l+l+l+l+l+l+l+",
"] ^ / ( _ : z [ } | A 2 3 4 5 B 7 8 9 C a D E d e f g ~#{#]#&@g+g+&@&@^#/#(#P.P.P._#:#<#[#}#:@;+A+l+l+l+l+l+l+l+l+l+l+l+l+l+l+l+",
"^ / ( _ O z [ } | P 2 3 4 5 B 7 8 Q C a D E R S f g h |#1#g+g+g+d@2#3#4#5#6#7#P.P.#+8#9#j+C. @.@l+l+l+l+l+l+l+l+l+l+l+l+l+l+l+l+",
"` ( _ O z [  .| P 2 3 ..+.B 7 8 Q C a D E R S @.#.$.0#a#g+g+g+b#c#R@d#e#f#g#h#v.P.P.}@++C. @.@3+l+l+l+l+l+l+l+l+l+l+l+l+l+l+l+l+",
";.>.,.z [  .| P '.3 ..+.B ).8 Q C a !.E R S @.#./.(.i#(@g+g+j#k#l#m#r s &.<.n#{@P.P.~+o#p#.@3+l+l+l+l+l+l+l+l+l+l+l+l+l+l+l+l+l+",
">.,.: 1. .| P '.3 ..+.B ).8 2.3.a !.E R d @.#./.(.q#r#g+g+g+Q@s#m#f.s &.<.U t#u#v#P.Q.w#x#3+l+l+l+l+l+l+l+l+l+l+l+l+l+l+l+l+l+l+",
",.: 1.n.} P '.3 ..o.B ).8 2.3.a !.<@R d @.#.g (._.y#*@&@g+Q+z#A#f.s &.<.U g.B#C#D#P.P.{@L+l+l+l+l+l+l+l+l+l+l+l+l+l+l+l+l+l+l+l+",
": 1.n.} I.1 3 J.o.B ).K.2.3.a !.b R d @.i@g (._.d.I@E#g+g+g+F#!#s U.V.U g.*.h.G#s.P.P.u.H#I#l+l+l+l+l+l+l+l+l+l+l+l+l+l+l+l+l+l+",
"< n.} I.1 Z.`.o.B ). +2.3.a !.b R d h@i@g (._.j e.J#K#&@g+L#z#!@U.V.U g.-+h.B.M#N#Q.P.v#O#P#l+l+l+l+l+l+l+l+l+l+l+l+l+l+l+l+l+l+",
")+} I.1 Z.`.4 5 ). +2.3.u@v@b R d h@i@g (._.j e.l Q#*@&@g+g+R#S#V.U g.-+h.B.C.t#T#P.P.v#h#U#l+l+l+l+l+l+l+l+l+l+l+l+l+l+l+l+l+l+",
"} | 1 Z.`.4 5 4+7 2.3.u@v@b c d h@i@g h _.j e.l m V#W#X#g+g+V@Y#!#g.-+h.B.j+Z#8@{@P.P.Q.`# $l+l+l+l+l+l+l+l+l+l+l+l+l+l+l+l+l+l+",
"| 1 2 3 4 5 4+7 8 9 u@v@b c d e i@g h _.j k l m .$+$@$#$g+g+g+j#$$%$&$N+*$b+=$-$Q.P.P.k@;$>$l+l+l+l+l+l+l+l+l+l+l+l+l+l+l+l+l+l+",
"1 2 3 4 5 6 7 8 9 0 a b c d e f g h i j k ,$'$)$!$~${$]$^$g+g+g+/$($_$^+!$]+O.P.P.P.P.!+8@:$l+l+l+l+l+l+l+l+l+l+l+l+l+l+l+l+l+l+",
"2 3 4 5 B 7 8 9 C a D E d e f g h F j k l 0+<$w#Q.P.`@[$}$=#g+g+=#|$1$2$3$P.P.P.P.P.w#7.4$l+l+l+l+l+l+l+l+l+l+l+l+l+l+l+l+l+l+l+",
"3 4 5 B 7 8 Q C a D E R S f g h F j k 5$6$7$Q.P.P.P.P.8$9$0$a$g+g+b$c$d$e$P.P.P.P.~+f$5.:$l+l+l+l+l+l+l+l+l+l+l+l+l+l+l+l+l+l+l+",
"..+.B 7 8 Q C a D E R S @.#.$.F j k g$h$i$v.P.P.P.D+u.O.j$k$l$=#g+g+m$n$o$7#p$q$r$s$t$:$l+l+l+l+l+l+l+l+l+l+l+l+l+l+l+l+l+l+l+l+",
"+.B ).8 Q C a !.E R S @.#./.(._.k %.u$C+v#P.P.v#D#v$;$w$x$y$z$A$g+g+g+B$C$D$s$E$F$G$:$l+l+l+l+l+l+l+l+l+l+l+l+l+l+l+l+l+l+l+l+l+",
"B ).8 2.3.a !.E R d @.#./.(._.d.e.-@H$v.P.P.P.I$J$K$L$g.*.h.M$N$&@g+g+Q+O$P$:$l+l+l+l+l+l+l+l+l+l+l+l+l+l+l+l+l+l+l+l+l+l+l+l+l+",
").8 2.3.a !.<@R d @.#.g (._.d.e.l Q$R$v#P.P.}@6$S$L$g.*.h.B.C.T$2@&@g+&@P+U$l+l+l+l+l+l+l+l+l+l+l+l+l+l+l+l+l+l+l+l+l+l+l+l+l+l+",
"K.2.3.a !.b R d @.i@g (._.d.e.l z.t#{+P.P.P.C+V$L$g.*.h.B.C.W.W$X$&@g+g+Y$Z$l+l+l+l+l+l+l+l+l+l+l+l+l+l+l+l+l+l+l+l+l+l+l+l+l+l+",
"2.3.a !.b R d h@i@g (._.j e.l z.9@`$ %P.P.v..%.$g.-+h.B.C.W.;+3++%@%g+g+a##%l+l+l+l+l+l+l+l+l+l+l+l+l+l+l+l+l+l+l+l+l+l+l+l+l+l+",
"3.u@v@b R d h@i@g (._.j e.l m 9@o $%%%Q.P.P.D#9.&%h.B.C.W.;+3+*%=%&@g+g+]#-%l+l+l+l+l+l+l+l+l+l+l+l+l+l+l+l+l+l+l+l+l+l+l+l+l+l+",
"u@v@b c d h@i@g h _.j e.l m n o ;%q >%,%P.P.P.N#)$'%j+k+;+3+l+)%!%&@g+g+R+~%l+l+l+l+l+l+l+l+l+l+l+l+l+l+l+l+l+l+l+l+l+l+l+l+l+l+",
"v@b c d e i@g h _.j k l m n o p q r {%]%Q.P.P.Q.O.^%k+;+A+/%(%_%&@g+g+g+{#:%l+l+l+l+l+l+l+l+l+l+l+l+l+l+l+l+l+l+l+l+l+l+l+l+l+l+",
"b c d e f g h i j k l m n o p q r s <%[%}%|%P.P.v.1%2%3%4%|#5%}+g+g+g+6%7%:$l+l+l+l+l+l+l+l+l+l+l+l+l+l+l+l+l+l+l+l+l+l+l+l+l+l+",
"E d e f g h F j k l G H o p q r s t A#8%9%0%#+P.P.a%b%c%d%]#Q+g+g+g+e%f%g%l+l+l+l+l+l+l+l+l+l+l+l+l+l+l+l+l+l+l+l+l+l+l+l+l+l+l+",
"R S f g h F j k l G H o p T r s h%i%j%k%l%m%n%#+P.P.o%p%q%g+g+g+g+}+)@`+:$l+l+l+l+l+l+l+l+l+l+l+l+l+l+l+l+l+l+l+l+l+l+l+l+l+l+l+",
"S @.#.$.F j k %.G H o p T r r%s%t%u%&@g+g+v%w%x%P.P.#+y%z%=#g+b#A%N$B%:$l+l+l+l+l+l+l+l+l+l+l+l+l+l+l+l+l+l+l+l+l+l+l+l+l+l+l+l+",
"@.#./.(._.k %.G H :.p T r C%D%E%d@g+g+g+g+m$F%G%H%P.P.I%J%K%6%L%M%N%:$l+l+l+l+l+l+l+l+l+l+l+l+l+l+l+l+l+l+l+l+l+l+l+l+l+l+l+l+l+",
"#./.(._.d.e.G H :.p T f.s O%E#P%g+g+g+&@]#Q%R%S%T%P.P.U%V%W%X%Y%:$l+l+l+l+l+l+l+l+l+l+l+l+l+l+l+l+l+l+l+l+l+l+l+l+l+l+l+l+l+l+l+",
"g (._.d.e.l z.:.A.T f.s Z%`%g+g+g+&@1# &.&+&@&#&$&P.P.%&&&:$l+l+l+l+l+l+l+l+l+l+l+l+l+l+l+l+l+l+l+l+l+l+l+l+l+l+l+l+l+l+l+l+l+l+",
"(._.d.e.l z.9@o T f.s U.*&=&}+&@D@R+-&;&>&,&l+'&D#P.P.v#8.U#l+l+l+l+l+l+l+l+l+l+l+l+l+l+l+l+l+l+l+l+l+l+l+l+l+l+l+l+l+l+l+l+l+l+",
"_.j e.l z.9@o ;%q s U.V.U )&!&R+~&{&]&G@3+l+l+^&/&P.P.D+(&:$l+l+l+l+l+l+l+l+l+l+l+l+l+l+l+l+l+l+l+l+l+l+l+l+l+l+l+l+l+l+l+l+l+l+",
"j e.l m 9@o ;%q _&2+V.U g.-+:&<&q#g@;+3+l+l+l+[&p$P.P.v#H$}&l+l+l+l+l+l+l+l+l+l+l+l+l+l+l+l+l+l+l+l+l+l+l+l+l+l+l+l+l+l+l+l+l+l+",
"e.l m n o ;%q _&2+t u g.-+h.B.j+k+;+3+l+l+l+ $|&{@P.P.N#1&:$l+l+l+l+l+l+l+l+l+l+l+l+l+l+l+l+l+l+l+l+l+l+l+l+l+l+l+l+l+l+l+l+l+l+",
"l m n o p q r 2+t u z+V h.B.j+k+;+A+l+l+l+l+V+N#P.P.P./&2&l+l+l+l+l+l+l+l+l+l+l+l+l+l+l+l+l+l+l+l+l+l+l+l+l+l+l+l+l+l+l+l+l+l+l+",
"m n o p q r s t u I V *.K+j+k+;+A+l+l+l+l+G$3&D+P.P.O.4&:$l+l+l+l+l+l+l+l+l+l+l+l+l+l+l+l+l+l+l+l+l+l+l+l+l+l+l+l+l+l+l+l+l+l+l+",
"H o p q r s t u I V *.K+i.C.;+A+l+l+l+l+l+5&6&Q.P.v.^+7&l+l+l+l+l+l+l+l+l+l+l+l+l+l+l+l+l+l+l+l+l+l+l+l+l+l+l+l+l+l+l+l+l+l+l+l+",
"o p T r s t u U V *.K+i.C. @.@l+l+l+l+l+l+l+8&R$w#9&0&:$l+l+l+l+l+l+l+l+l+l+l+l+l+l+l+l+l+l+l+l+l+l+l+l+l+l+l+l+l+l+l+l+l+l+l+l+",
"p T r s &.u U V *.[.i.C. @.@3+l+l+l+l+l+l+l+l+@@a&b&:$l+l+l+l+l+l+l+l+l+l+l+l+l+l+l+l+l+l+l+l+l+l+l+l+l+l+l+l+l+l+l+l+l+l+l+l+l+"};
