/* XPM */
static char * inactive_25_xpm[] = {
"25 25 61 1",
" 	c None",
".	c #3B746E",
"+	c #3D766E",
"@	c #407970",
"#	c #427B71",
"$	c #447D72",
"%	c #467F73",
"&	c #498174",
"*	c #4B8375",
"=	c #4D8676",
"-	c #4F8877",
";	c #518A79",
">	c #548C7A",
",	c #568E7B",
"'	c #58917C",
")	c #5A937D",
"!	c #5D957E",
"~	c #5F977F",
"{	c #619980",
"]	c #639C81",
"^	c #669E83",
"/	c #68A084",
"(	c #6AA285",
"_	c #407870",
":	c #6CA486",
"<	c #488174",
"[	c #6EA687",
"}	c #639B81",
"|	c #71A988",
"1	c #73AB89",
"2	c #518A78",
"3	c #75AD8A",
"4	c #77AF8B",
"5	c #58907C",
"6	c #7AB18D",
"7	c #659E83",
"8	c #7CB38E",
"9	c #7EB68F",
"0	c #80B890",
"a	c #4D8576",
"b	c #83BA91",
"c	c #659E82",
"d	c #85BC92",
"e	c #87BE93",
"f	c #71A888",
"g	c #82BA91",
"h	c #89C194",
"i	c #8BC395",
"j	c #8EC597",
"k	c #5C957E",
"l	c #90C798",
"m	c #659D82",
"n	c #92C999",
"o	c #79B18C",
"p	c #94CB9A",
"q	c #97CE9B",
"r	c #96CE9B",
"s	c #99D09C",
"t	c #89C094",
"u	c #9BD29D",
"v	c #9CD29E",
".....+@#$%&*=-;>,')!~{]^/",
"....+@#$%&*=-;>,')!~{]^/(",
"...+_#$%&*=-;>,')!~{]^/(:",
"..+_#$%<*=-;>,')!~{]^/(:[",
".+_#$%<*=-;>,')!~{}^/(:[|",
"+_#$%<*=-;>,')!~{}^/(:[|1",
"_#$%<*=-2>,')!~{}^/(:[|13",
"#$%<*=-2>,')!~{}^/(:[|134",
"$%<*=-2>,5)!~{}^/(:[|1346",
"%<*=-2>,5)!~{}7/(:[|13468",
"<*=-2>,5)!~{}7/(:[|134689",
"*=-2>,5)!~{}7/(:[|1346890",
"a-2>,5)!~{}7/(:[|1346890b",
"-2>,5)!~{}c/(:[|1346890bd",
"2>,5)!~{}c/(:[|1346890bde",
">,5)!~{}c/(:[f1346890gdeh",
",5)!~{}c/(:[f1346890gdehi",
"5)!~{}c/(:[f1346890gdehij",
")k~{}c/(:[f1346890gdehijl",
"k~{}m/(:[f1346890gdehijln",
"~{}m/(:[f134o890gdehijlnp",
"{}m/(:[f134o890gdehijlnpq",
"}m/(:[f134o890gdehijlnprs",
"m/(:[f134o890gdetijlnprsu",
"/(:[f134o890gdetijlnprsuv"};
